<svg width="24" height="24" viewBox="0 0 24 24" fill="none" xmlns="http://www.w3.org/2000/svg">
<path d="M12.0049 22.0029C6.48188 22.0029 2.00488 17.5259 2.00488 12.0029C2.00488 6.47993 6.48188 2.00293 12.0049 2.00293C17.5279 2.00293 22.0049 6.47993 22.0049 12.0029C22.0049 17.5259 17.5279 22.0029 12.0049 22.0029ZM12.0049 20.0029C14.1266 20.0029 16.1614 19.1601 17.6617 17.6598C19.162 16.1595 20.0049 14.1247 20.0049 12.0029C20.0049 9.8812 19.162 7.84637 17.6617 6.34608C16.1614 4.84578 14.1266 4.00293 12.0049 4.00293C9.88315 4.00293 7.84832 4.84578 6.34803 6.34608C4.84774 7.84637 4.00488 9.8812 4.00488 12.0029C4.00488 14.1247 4.84774 16.1595 6.34803 17.6598C7.84832 19.1601 9.88315 20.0029 12.0049 20.0029ZM8.50488 14.0029H14.0049C14.1375 14.0029 14.2647 13.9503 14.3584 13.8565C14.4522 13.7627 14.5049 13.6355 14.5049 13.5029C14.5049 13.3703 14.4522 13.2431 14.3584 13.1494C14.2647 13.0556 14.1375 13.0029 14.0049 13.0029H10.0049C9.34184 13.0029 8.70596 12.7395 8.23712 12.2707C7.76827 11.8019 7.50488 11.166 7.50488 10.5029C7.50488 9.83989 7.76827 9.204 8.23712 8.73516C8.70596 8.26632 9.34184 8.00293 10.0049 8.00293H11.0049V6.00293H13.0049V8.00293H15.5049V10.0029H10.0049C9.87227 10.0029 9.7451 10.0556 9.65133 10.1494C9.55756 10.2431 9.50488 10.3703 9.50488 10.5029C9.50488 10.6355 9.55756 10.7627 9.65133 10.8565C9.7451 10.9503 9.87227 11.0029 10.0049 11.0029H14.0049C14.6679 11.0029 15.3038 11.2663 15.7726 11.7352C16.2415 12.204 16.5049 12.8399 16.5049 13.5029C16.5049 14.166 16.2415 14.8019 15.7726 15.2707C15.3038 15.7395 14.6679 16.0029 14.0049 16.0029H13.0049V18.0029H11.0049V16.0029H8.50488V14.0029Z" fill="#328BDE"/>
</svg>
